<svg width="76" height="76" viewBox="0 0 76 76" fill="none" xmlns="http://www.w3.org/2000/svg">
<g opacity="0.8" filter="url(#filter0_i)">
<circle cx="38" cy="38" r="38" fill="url(#paint0_linear)"/>
</g>
<path d="M51.688 20.344C53.064 20.344 54.152 20.744 54.952 21.544C55.784 22.312 56.2 23.336 56.2 24.616C56.2 25.8 55.8 26.888 55 27.88C54.232 28.872 53.176 29.368 51.832 29.368C50.936 29.368 50.184 29.096 49.576 28.552C48.968 27.976 48.664 27.208 48.664 26.248C48.664 25.288 48.984 24.36 49.624 23.464C50.264 22.568 51.128 21.88 52.216 21.4C52.024 21.304 51.768 21.256 51.448 21.256C50.872 21.256 50.408 21.352 50.056 21.544C49.704 21.704 49.352 21.96 49 22.312C48.488 22.888 48.04 23.624 47.656 24.52C47.272 25.416 46.856 26.584 46.408 28.024C45.864 29.752 45.352 31.192 44.872 32.344C44.424 33.464 43.784 34.472 42.952 35.368C42.12 36.264 41.064 36.856 39.784 37.144C42.248 37.4 43.992 38.008 45.016 38.968C46.072 39.928 46.6 41.432 46.6 43.48C46.6 43.832 46.568 44.456 46.504 45.352L45.976 50.392C45.88 51.576 46.28 52.168 47.176 52.168C47.784 52.168 48.296 51.944 48.712 51.496C49.128 51.016 49.512 50.28 49.864 49.288L50.68 46.84H51.64L50.392 50.536C49.816 52.264 48.968 53.56 47.848 54.424C46.728 55.256 45.432 55.672 43.96 55.672C42.136 55.672 40.744 55.24 39.784 54.376C38.856 53.512 38.392 52.312 38.392 50.776C38.392 50.52 38.424 50.136 38.488 49.624L39.4 42.904C39.496 42.136 39.544 41.464 39.544 40.888C39.544 40.088 39.448 39.448 39.256 38.968C39.064 38.488 38.744 38.088 38.296 37.768C36.888 38.12 35.912 38.296 35.368 38.296C34.568 38.296 34.168 38.024 34.168 37.48C34.168 36.712 34.632 36.328 35.56 36.328C36.264 36.328 37.208 36.488 38.392 36.808C39.832 36.616 40.984 36.088 41.848 35.224C42.744 34.36 43.432 33.384 43.912 32.296C44.392 31.208 44.92 29.736 45.496 27.88C45.976 26.248 46.408 24.968 46.792 24.04C47.176 23.112 47.672 22.344 48.28 21.736C49.208 20.808 50.344 20.344 51.688 20.344ZM29.752 49.912C29.464 51.128 29.32 51.912 29.32 52.264C29.32 52.936 29.544 53.384 29.992 53.608C30.472 53.832 31.336 53.976 32.584 54.04L32.392 55C30.632 54.904 28.12 54.856 24.856 54.856C21.368 54.856 18.76 54.904 17.032 55L17.272 54.04C18.392 53.976 19.224 53.848 19.768 53.656C20.344 53.464 20.792 53.096 21.112 52.552C21.464 51.976 21.8 51.096 22.12 49.912L28.456 26.104C28.712 25.016 28.84 24.248 28.84 23.8C28.84 23.096 28.6 22.632 28.12 22.408C27.672 22.184 26.84 22.04 25.624 21.976L25.864 21.016C27.496 21.112 30.104 21.16 33.688 21.16C36.76 21.16 39.288 21.112 41.272 21.016L41.032 21.976C39.848 22.04 38.968 22.168 38.392 22.36C37.848 22.552 37.4 22.92 37.048 23.464C36.728 24.008 36.408 24.888 36.088 26.104L29.752 49.912Z" fill="white"/>
<defs>
<filter id="filter0_i" x="0" y="0" width="76" height="80" filterUnits="userSpaceOnUse" color-interpolation-filters="sRGB">
<feFlood flood-opacity="0" result="BackgroundImageFix"/>
<feBlend mode="normal" in="SourceGraphic" in2="BackgroundImageFix" result="shape"/>
<feColorMatrix in="SourceAlpha" type="matrix" values="0 0 0 0 0 0 0 0 0 0 0 0 0 0 0 0 0 0 127 0" result="hardAlpha"/>
<feOffset dy="4"/>
<feGaussianBlur stdDeviation="2"/>
<feComposite in2="hardAlpha" operator="arithmetic" k2="-1" k3="1"/>
<feColorMatrix type="matrix" values="0 0 0 0 0 0 0 0 0 0 0 0 0 0 0 0 0 0 0.25 0"/>
<feBlend mode="normal" in2="shape" result="effect1_innerShadow"/>
</filter>
<linearGradient id="paint0_linear" x1="112.348" y1="2.34771e-06" x2="-19" y2="17" gradientUnits="userSpaceOnUse">
<stop stop-color="#ED18BE"/>
<stop offset="0.914021" stop-color="#736DF1"/>
</linearGradient>
</defs>
</svg>
