<svg width="816" height="816" viewBox="0 0 816 816" fill="none" xmlns="http://www.w3.org/2000/svg">
<path d="M75.3979 352.512V352.512C73.5602 361.078 85.5825 364.701 91.0411 357.849C95.6176 352.105 100.466 346.581 105.345 341.21C117.096 328.236 129.662 315.955 140.637 302.328C144.264 297.371 147.56 292.216 150.65 286.942C157.751 274.825 146.512 261.323 134.395 268.423V268.423C105.631 285.192 82.9867 317.057 75.3979 352.512Z" fill="#C7D9FA"/>
<path d="M474.218 197.758C481.97 200.818 489.885 203.266 498.086 204.734C500.738 204.979 503.349 205.061 506.001 205.061C508.694 205.061 511.427 204.938 514.12 204.694V204.694C514.379 204.642 514.473 204.321 514.283 204.137C502.105 192.374 489.669 180.846 475.442 172.584C462.712 165.158 449.493 160.793 435.172 159.406C432.643 159.161 430.113 159.038 427.543 159.038V159.038C419.693 159.038 418.53 169.006 425.545 172.527C431.083 175.306 436.566 178.208 442.027 181.193C452.594 187.027 463.202 192.821 474.218 197.758Z" fill="#C7D9FA"/>
<path d="M530.767 607.675C505.063 600.862 479.155 594.538 452.839 590.743C440.15 589.193 427.42 588.295 414.65 588.295C405.144 588.295 395.678 588.785 386.212 589.845C371.973 592.049 358.06 595.68 344.188 599.637C317.138 607.349 289.72 615.468 261.324 615.631C261.079 615.631 260.793 615.631 260.548 615.631C254.622 615.631 248.594 615.315 242.607 614.613C235.582 613.789 229.173 619.452 229.173 626.525V626.525C229.255 637.133 237.252 647.292 246.962 647.292C247.207 647.292 247.411 647.292 247.656 647.292C248.876 647.228 250.073 647.045 251.236 646.75C258.7 644.858 266.376 641.127 273.903 642.749C323.426 653.423 373.911 658.92 424.36 658.92C431.704 658.92 439.048 658.797 446.392 658.553C480.419 657.451 514.324 653.779 547.944 647.904C569.192 644.187 590.094 639.055 610.334 631.33C611.854 630.749 611.637 628.517 610.041 628.197V628.197C583.358 622.771 557.124 614.693 530.767 607.675Z" fill="#C7D9FA"/>
<path d="M726.554 272.667C724.148 269.998 720.207 272.605 721.221 276.053V276.053C728.687 301.389 730.809 328.521 730.401 354.878C729.993 380.419 727.218 405.837 724.77 431.256C721.955 460.346 719.181 489.437 716.366 518.486V518.486C715.823 524.258 723.114 526.464 725.569 521.213C731.757 507.975 736.974 494.149 741.294 479.808C750.107 450.554 754.799 419.669 756.39 388.905C757.941 358.836 755.126 328.195 743.946 300.573C739.674 290.037 733.727 280.625 726.554 272.667Z" fill="#C7D9FA"/>
<path d="M366.873 151.817C355.449 149.981 343.944 148.716 332.397 148.716C330.235 148.716 328.032 148.757 325.828 148.838C298.329 150.022 271.85 156.713 247.207 168.953C222.645 181.152 202.123 199.757 186.456 222.156C183.458 226.431 180.685 230.844 178.058 235.344C173.345 243.419 180.799 253.388 190.128 252.756V252.756C208.039 251.614 226.072 252.715 243.943 250.43C250.756 249.206 257.448 247.411 264.016 244.963C265.893 244.27 267.729 243.494 269.565 242.678C270.136 242.434 270.748 242.148 271.32 241.903C274.543 240.271 277.725 238.598 280.867 236.762C293.841 229.255 306 220.157 318.036 210.936C341.414 193.066 364.833 175.318 392.088 165.648C394.694 164.73 397.364 163.876 400.068 163.118C401.046 162.844 401.144 161.469 400.207 161.078V161.078C389.476 156.754 378.256 153.694 366.873 151.817Z" fill="#C7D9FA"/>
<path d="M635.255 620.282C634.119 620.868 632.982 621.443 631.844 622.006C627.255 624.278 628.153 631.159 633.256 631.584V631.584C635.133 631.747 637.01 631.788 638.846 631.788C644.68 631.788 650.392 631.135 656.267 630.237C663.571 629.177 670.588 626.484 677.116 623.057C683.522 619.711 689.519 614.856 694.007 609.185C700.413 601.188 704.819 593.273 707.961 583.358C710.368 575.77 711.225 567.773 712.245 559.939V559.939C712.737 555.972 707.344 554.138 705.104 557.45C703.97 559.125 702.815 560.785 701.637 562.428C684.011 587.234 660.919 607.104 635.255 620.282Z" fill="#C7D9FA"/>
<path d="M222.359 585.398C221.666 583.318 220.89 581.278 220.197 579.197C220.482 580.135 220.727 580.829 220.891 581.318V581.318C220.899 581.341 220.898 581.342 220.891 581.318V581.318C220.646 580.584 220.319 579.605 220.115 579.074C219.707 578.054 219.259 577.075 218.851 576.055C216.974 571.73 214.893 567.528 212.649 563.407C210.405 559.286 207.794 555.492 205.386 551.534C206.447 553.289 206.855 553.942 206.814 553.942C206.774 553.942 204.693 550.718 203.918 549.698C202.408 547.74 200.898 545.822 199.307 543.946C196.37 540.478 193.269 537.173 190.005 534.031C189.107 533.174 188.21 532.358 187.312 531.542C185.802 530.318 184.293 529.094 182.742 527.911C168.462 517.181 152.469 509.878 137.454 500.616C129.009 495.434 121.135 489.478 113.668 482.705C106.855 476.544 101.224 469.282 95.9201 461.53C82.0416 441.219 73.9741 416.028 72.5362 390.442C72.4834 389.504 71.2644 389.259 70.9097 390.13V390.13C66.7481 399.758 62.9537 409.387 61.1993 419.75C59.2409 431.338 58.5065 442.109 60.0569 453.696C61.5665 464.834 64.6673 475.279 70.2977 485.112C75.1529 493.558 81.7625 501.31 89.4329 507.348C98.0009 514.121 106.854 519.751 116.402 525.014C122.97 528.646 129.58 532.236 135.7 536.52C137.256 537.849 138.734 539.229 140.135 540.701C140.861 541.465 141.5 542.307 142.047 543.207C143.534 545.65 144.851 548.182 146.022 550.8C148.266 556.39 150.47 561.979 152.999 567.446C156.1 574.178 160.466 580.339 165.525 585.766C174.377 595.164 186.189 601.31 198.696 602.752C201.665 603.094 204.595 603.795 207.316 605.032C211.611 606.984 216.064 608.662 220.727 610.082C223.204 610.841 225.759 611.522 228.316 612.125C228.399 612.144 228.495 612.068 228.459 611.99V611.99C228.447 611.964 228.436 611.944 228.432 611.915C227.167 602.873 225.129 593.993 222.359 585.398Z" fill="#C7D9FA"/>
<path d="M649.78 562.306C649.576 562.51 649.372 562.673 649.127 562.877C649.454 562.632 649.698 562.387 649.78 562.306Z" fill="#C7D9FA"/>
<path d="M679.605 205.591C668.017 195.228 654.88 187.068 639.906 182.621C631.624 180.173 623.341 179.194 615.018 179.194C607.756 179.194 600.453 179.928 593.109 181.111C569.975 184.742 548.881 195.799 526.401 201.96V201.96C521.542 203.29 519.7 209.516 523.327 213.011C525.491 215.096 527.656 217.169 529.828 219.218C531.541 220.81 533.296 222.401 535.009 223.992V223.992C534.987 223.969 534.991 223.964 535.015 223.985C535.207 224.148 535.728 224.6 536.723 225.502C537.661 226.277 538.6 227.093 539.579 227.868C543.904 231.377 548.392 234.682 553.043 237.578C554.92 238.762 556.797 239.863 558.714 240.883C558.633 240.842 558.592 240.802 558.633 240.802C558.714 240.802 559.367 241.128 561.081 242.066C562.019 242.474 562.998 242.882 563.937 243.25C568.71 245.086 573.647 246.391 578.625 247.289C583.725 247.901 588.825 248.186 593.925 248.186C594.455 248.186 595.026 248.186 595.557 248.186C609.021 248.023 622.444 246.31 635.867 245.126C642.313 244.555 648.678 244.229 655.043 244.229C663.121 244.229 671.159 244.8 679.237 246.146C683.511 246.865 687.703 247.95 691.781 249.373C699.386 252.027 708.7 244.259 704.656 237.293V237.293C697.965 225.624 689.56 214.486 679.605 205.591Z" fill="#C7D9FA"/>
<path d="M561.734 242.352C561.489 242.229 561.285 242.107 561.04 241.985C560.877 241.903 560.755 241.862 560.591 241.781C560.999 241.985 561.367 242.148 561.734 242.352Z" fill="#C7D9FA"/>
<path d="M558.714 240.802C558.896 240.923 559.304 241.157 559.735 241.369C560.03 241.515 560.338 241.634 560.632 241.781V241.781C560.469 241.699 560.306 241.618 560.142 241.536C559.653 241.291 559.204 241.046 558.714 240.802Z" fill="#C7D9FA"/>
<path d="M536.275 225.053C536.723 225.42 537.131 225.787 537.58 226.195C537.254 225.91 537.009 225.665 536.723 225.42C536.601 225.298 536.438 225.216 536.315 225.094L536.275 225.053Z" fill="#C7D9FA"/>
<path d="M535.01 223.91C535.255 224.114 535.826 224.645 536.275 225.053C536.234 225.012 536.193 224.971 536.152 224.93C535.785 224.604 535.418 224.278 535.01 223.91Z" fill="#C7D9FA"/>
<path d="M535.01 223.91C535.377 224.237 535.744 224.604 536.152 224.93C536.193 224.971 536.234 225.012 536.274 225.053L536.315 225.094C536.438 225.216 536.601 225.298 536.723 225.42C535.728 224.518 535.207 224.067 535.016 223.903C535.004 223.893 534.998 223.899 535.01 223.91V223.91Z" fill="#9EBDF7"/>
<path d="M558.714 240.801C559.163 241.046 559.653 241.291 560.102 241.536C560.265 241.617 560.428 241.699 560.591 241.781C560.754 241.862 560.877 241.903 561.04 241.985C559.326 241.046 558.674 240.72 558.592 240.72C558.592 240.72 558.633 240.761 558.714 240.801Z" fill="#9EBDF7"/>
<path d="M220.932 581.277C220.942 581.317 220.942 581.317 220.932 581.277V581.277V581.277Z" fill="#9EBDF7"/>
<path d="M718.857 268.582C717.732 265.278 715.674 262.356 712.85 260.305C702.795 253.002 691.345 248.06 679.238 246.024C671.119 244.678 663.081 244.106 655.043 244.106C648.679 244.106 642.314 244.433 635.867 245.004C622.444 246.187 609.021 247.942 595.557 248.064C595.027 248.064 594.455 248.064 593.925 248.064C588.825 248.064 583.725 247.819 578.625 247.166C573.647 246.269 568.711 244.963 563.937 243.127C562.958 242.76 562.019 242.352 561.081 241.944C561.285 242.066 561.53 242.189 561.775 242.311C561.547 242.185 561.32 242.058 561.083 241.942C560.788 241.797 560.477 241.683 560.183 241.536V241.536C559.653 241.291 559 240.924 558.715 240.761C556.797 239.741 554.879 238.639 553.043 237.456C548.392 234.559 543.904 231.254 539.579 227.746C538.641 226.97 537.662 226.195 536.723 225.379C536.968 225.624 537.254 225.869 537.58 226.154C537.172 225.787 536.723 225.379 536.275 225.012C535.826 224.645 535.255 224.114 535.01 223.87C533.255 222.319 531.542 220.728 529.828 219.096C524.919 214.503 520.047 209.718 515.14 204.964C514.859 204.693 514.463 204.576 514.079 204.653V204.653C511.387 204.898 508.653 205.02 505.96 205.02C503.308 205.02 500.697 204.898 498.045 204.694C489.844 203.225 481.929 200.736 474.177 197.717C463.161 192.78 452.594 186.986 441.986 181.234C431.203 175.358 420.39 169.805 409.226 164.871C405.295 163.134 400.877 162.776 396.774 164.052C395.193 164.543 393.629 165.064 392.087 165.607C364.833 175.277 341.373 193.025 318.035 210.895C305.999 220.116 293.841 229.214 280.867 236.722C277.725 238.558 274.543 240.19 271.319 241.862C270.748 242.107 270.136 242.393 269.565 242.638C267.729 243.454 265.852 244.188 264.016 244.922C257.447 247.411 250.756 249.206 243.943 250.39C226.072 252.674 208.079 251.532 190.127 252.715C185.482 253.006 180.879 253.468 176.328 254.145C170.409 255.026 165.472 258.953 162.771 264.292C156.142 277.395 149.372 290.394 140.637 302.287C129.621 315.914 117.095 328.195 105.345 341.17C93.8527 353.819 82.531 367.321 74.5318 382.55C73.0576 385.356 72.407 388.52 72.6109 391.683C74.2321 416.841 82.2279 441.547 95.9203 461.53C101.224 469.282 106.855 476.544 113.668 482.705C121.135 489.478 129.009 495.434 137.455 500.616C152.469 509.837 168.503 517.14 182.743 527.911C184.293 529.094 185.803 530.318 187.312 531.542C188.21 532.358 189.107 533.174 190.005 534.031C193.269 537.132 196.37 540.437 199.307 543.946C200.899 545.822 202.449 547.74 203.918 549.698C204.693 550.678 206.733 553.942 206.815 553.942C206.855 553.942 206.447 553.289 205.387 551.534C207.794 555.492 210.405 559.286 212.649 563.407C214.893 567.487 216.974 571.73 218.851 576.055C219.299 577.034 219.707 578.054 220.115 579.074C220.319 579.564 220.646 580.543 220.891 581.318C220.727 580.829 220.523 580.135 220.197 579.197C220.85 581.278 221.666 583.318 222.359 585.398C225.134 594.007 227.133 602.942 228.398 612V612C228.398 612.139 228.51 612.221 228.646 612.251C239.068 614.625 249.929 615.672 260.548 615.672C260.793 615.672 261.079 615.672 261.323 615.672C289.72 615.55 317.138 607.39 344.188 599.678C358.06 595.721 371.973 592.09 386.212 589.886C395.678 588.826 405.143 588.336 414.65 588.336C427.42 588.336 440.15 589.234 452.839 590.784C479.155 594.619 505.063 600.902 530.767 607.716C557.123 614.693 583.317 622.771 610.041 628.279V628.279C613.662 629.003 617.412 628.624 620.802 627.162C625.676 625.06 630.499 622.792 635.255 620.323C660.919 607.145 684.011 587.275 701.637 562.51C705.225 557.473 708.6 552.331 711.806 547.061C713.325 544.564 714.224 541.744 714.49 538.834C715.108 532.066 715.696 525.303 716.366 518.568C719.181 489.478 721.955 460.387 724.771 431.338C727.219 405.919 729.993 380.501 730.401 354.96C730.809 328.603 728.728 301.512 721.221 276.134C720.491 273.579 719.703 271.067 718.857 268.582ZM613.06 586.174C612.959 586.222 612.956 586.215 613.06 586.174V586.174V586.174ZM649.168 562.877V562.877C649.249 562.812 649.247 562.809 649.168 562.877V562.877ZM684.746 290.374C684.787 290.374 685.562 290.659 686.337 291.026C685.113 290.537 684.705 290.374 684.746 290.374ZM695.639 297.024C695.68 297.065 695.762 297.106 695.803 297.146C696.211 297.514 696.619 297.922 697.027 298.289V298.289C697.302 298.564 697.245 298.601 696.965 298.33C696.684 298.059 696.253 297.637 695.639 297.024Z" fill="#9EBDF7"/>
<path d="M649.78 562.306C649.576 562.51 649.372 562.673 649.127 562.877C649.454 562.632 649.698 562.387 649.78 562.306Z" fill="#9EBDF7"/>
<path d="M686.337 291.026C685.602 290.7 684.786 290.374 684.746 290.374C684.705 290.374 685.113 290.537 686.337 291.026Z" fill="#9EBDF7"/>
<path d="M695.802 297.146C695.762 297.105 695.68 297.065 695.639 297.024C696.904 298.289 697.394 298.737 697.434 298.737C697.475 298.737 697.312 298.574 697.067 298.289C696.659 297.921 696.21 297.554 695.802 297.146Z" fill="#9EBDF7"/>
<path d="M613.06 586.174V586.174C613.044 586.181 613.044 586.181 613.06 586.174V586.174Z" fill="#9EBDF7"/>
<path d="M339.538 134.721H154.918C150.797 134.721 147.492 138.067 147.492 142.147V275.93C147.492 280.051 150.838 283.356 154.918 283.356H339.538C343.658 283.356 346.963 280.01 346.963 275.93V142.147C347.004 138.067 343.658 134.721 339.538 134.721Z" fill="#E4E8EF"/>
<path d="M196.852 165.036H194.665C183.619 165.036 174.665 173.99 174.665 185.036V187.223C174.665 198.269 183.619 207.223 194.665 207.223H196.852C207.898 207.223 216.852 198.269 216.852 187.223V185.036C216.852 173.99 207.898 165.036 196.852 165.036Z" fill="#EFF1F4"/>
<path d="M248.342 165.036H246.155C235.109 165.036 226.155 173.99 226.155 185.036V187.223C226.155 198.269 235.109 207.223 246.155 207.223H248.342C259.387 207.223 268.342 198.269 268.342 187.223V185.036C268.342 173.99 259.387 165.036 248.342 165.036Z" fill="#AFC5E0"/>
<path d="M299.831 165.036H297.644C286.598 165.036 277.644 173.99 277.644 185.036V187.223C277.644 198.269 286.598 207.223 297.644 207.223H299.831C310.877 207.223 319.831 198.269 319.831 187.223V185.036C319.831 173.99 310.877 165.036 299.831 165.036Z" fill="#EFF1F4"/>
<path d="M248.342 214.689H246.155C235.109 214.689 226.155 223.644 226.155 234.689V236.877C226.155 247.922 235.109 256.877 246.155 256.877H248.342C259.387 256.877 268.342 247.922 268.342 236.877V234.689C268.342 223.644 259.387 214.689 248.342 214.689Z" fill="#EFF1F4"/>
<path d="M299.831 214.689H297.644C286.598 214.689 277.644 223.644 277.644 234.689V236.877C277.644 247.922 286.598 256.877 297.644 256.877H299.831C310.877 256.877 319.831 247.922 319.831 236.877V234.689C319.831 223.644 310.877 214.689 299.831 214.689Z" fill="#E4E8EF"/>
<path d="M190.658 225.42H98.4911C92.2895 225.42 87.2303 230.479 87.2303 236.681V340.435C87.2303 346.637 92.2895 351.696 98.4911 351.696H190.658C196.86 351.696 201.919 346.637 201.919 340.435V236.681C201.919 230.479 196.86 225.42 190.658 225.42Z" fill="#EFF1F4"/>
<path d="M188.374 239.333H100.776C97.3081 239.333 94.4929 242.148 94.4929 245.616V335.376C94.4929 338.844 97.3081 341.659 100.776 341.659H188.374C191.842 341.659 194.657 338.844 194.657 335.376V245.616C194.657 242.148 191.842 239.333 188.374 239.333Z" fill="url(#paint0_linear)"/>
<path d="M163.057 231.295H126.093C125.698 231.295 125.379 231.615 125.379 232.009C125.379 232.404 125.698 232.723 126.093 232.723H163.057C163.452 232.723 163.771 232.404 163.771 232.009C163.771 231.615 163.452 231.295 163.057 231.295Z" fill="#D1D7E0"/>
<path d="M724.363 112.404H562.387C557.777 112.404 554.064 116.117 554.064 120.727V276.624C554.064 281.234 557.777 284.947 562.387 284.947H724.363C728.973 284.947 732.686 281.234 732.686 276.624V120.727C732.686 116.117 728.973 112.404 724.363 112.404Z" fill="url(#paint1_linear)"/>
<path d="M715.55 129.336H571.241C568.303 129.336 565.937 131.702 565.937 134.64V191.719C565.937 194.657 568.303 197.023 571.241 197.023H715.55C718.488 197.023 720.854 194.657 720.854 191.719V134.64C720.854 131.702 718.488 129.336 715.55 129.336Z" fill="#E9EDF4"/>
<path d="M715.55 203.062H571.241C568.303 203.062 565.937 205.428 565.937 208.366V270.014C565.937 272.952 568.303 275.318 571.241 275.318H715.55C718.488 275.318 720.854 272.952 720.854 270.014V208.366C720.854 205.428 718.488 203.062 715.55 203.062Z" fill="#E9EDF4"/>
<path d="M505.92 244.473H449.494C447.862 244.473 446.515 245.82 446.515 247.452V391.231C446.515 392.863 447.862 394.209 449.494 394.209H505.92C507.552 394.209 508.898 392.863 508.898 391.231V247.452C508.898 245.779 507.593 244.473 505.92 244.473Z" fill="#E4E8EF"/>
<path d="M483.64 298.088C491.509 294.828 495.246 285.807 491.987 277.937C488.727 270.068 479.705 266.331 471.836 269.591C463.966 272.85 460.229 281.872 463.489 289.741C466.749 297.611 475.771 301.348 483.64 298.088Z" fill="#AFC5E0"/>
<path d="M488.192 303.103H467.262C466.665 303.103 466.181 303.587 466.181 304.184C466.181 304.781 466.665 305.265 467.262 305.265H488.192C488.79 305.265 489.274 304.781 489.274 304.184C489.274 303.587 488.79 303.103 488.192 303.103Z" fill="#AFC5E0"/>
<path d="M492.211 308.856H463.243C462.725 308.856 462.305 309.276 462.305 309.794C462.305 310.312 462.725 310.733 463.243 310.733H492.211C492.729 310.733 493.149 310.312 493.149 309.794C493.149 309.276 492.729 308.856 492.211 308.856Z" fill="#AFC5E0"/>
<path d="M480.662 358.534C489.026 356.923 494.501 348.837 492.891 340.472C491.28 332.108 483.194 326.633 474.829 328.244C466.465 329.855 460.99 337.941 462.601 346.305C464.212 354.669 472.298 360.144 480.662 358.534Z" fill="#AFC5E0"/>
<path d="M488.192 362.63H467.262C466.665 362.63 466.181 363.114 466.181 363.711C466.181 364.309 466.665 364.793 467.262 364.793H488.192C488.79 364.793 489.274 364.309 489.274 363.711C489.274 363.114 488.79 362.63 488.192 362.63Z" fill="#AFC5E0"/>
<path d="M492.211 368.383H463.243C462.725 368.383 462.305 368.803 462.305 369.321C462.305 369.84 462.725 370.26 463.243 370.26H492.211C492.729 370.26 493.149 369.84 493.149 369.321C493.149 368.803 492.729 368.383 492.211 368.383Z" fill="#AFC5E0"/>
<path d="M648.393 352.308H519.751C517.874 352.308 516.365 353.817 516.365 355.694V389.925C516.365 391.802 517.874 393.312 519.751 393.312H648.393C650.27 393.312 651.78 391.802 651.78 389.925V355.694C651.78 353.817 650.27 352.308 648.393 352.308Z" fill="#EFF1F4"/>
<path d="M521.261 258.631C521.261 260.772 522.996 262.507 525.137 262.507C527.277 262.507 529.013 260.772 529.013 258.631C529.013 256.49 527.277 254.755 525.137 254.755C522.996 254.755 521.261 256.49 521.261 258.631Z" fill="#EFF1F4"/>
<path d="M606.961 255.163H539.845C539.564 255.163 539.335 255.392 539.335 255.673C539.335 255.955 539.564 256.183 539.845 256.183H606.961C607.243 256.183 607.471 255.955 607.471 255.673C607.471 255.392 607.243 255.163 606.961 255.163Z" fill="#EFF1F4"/>
<path d="M624.464 258.142H539.845C539.564 258.142 539.335 258.37 539.335 258.652C539.335 258.933 539.564 259.162 539.845 259.162H624.464C624.746 259.162 624.974 258.933 624.974 258.652C624.974 258.37 624.746 258.142 624.464 258.142Z" fill="#EFF1F4"/>
<path d="M620.14 261.12H539.845C539.564 261.12 539.335 261.348 539.335 261.63C539.335 261.912 539.564 262.14 539.845 262.14H620.14C620.421 262.14 620.65 261.912 620.65 261.63C620.65 261.348 620.421 261.12 620.14 261.12Z" fill="#EFF1F4"/>
<path d="M521.261 278.297C521.261 280.437 522.996 282.173 525.137 282.173C527.277 282.173 529.013 280.437 529.013 278.297C529.013 276.156 527.277 274.421 525.137 274.421C522.996 274.421 521.261 276.156 521.261 278.297Z" fill="#EFF1F4"/>
<path d="M606.961 274.788H539.845C539.564 274.788 539.335 275.016 539.335 275.298C539.335 275.58 539.564 275.808 539.845 275.808H606.961C607.243 275.808 607.471 275.58 607.471 275.298C607.471 275.016 607.243 274.788 606.961 274.788Z" fill="#EFF1F4"/>
<path d="M624.464 277.807H539.845C539.564 277.807 539.335 278.035 539.335 278.317C539.335 278.599 539.564 278.827 539.845 278.827H624.464C624.746 278.827 624.974 278.599 624.974 278.317C624.974 278.035 624.746 277.807 624.464 277.807Z" fill="#EFF1F4"/>
<path d="M620.14 280.786H539.845C539.564 280.786 539.335 281.014 539.335 281.296C539.335 281.577 539.564 281.806 539.845 281.806H620.14C620.421 281.806 620.65 281.577 620.65 281.296C620.65 281.014 620.421 280.786 620.14 280.786Z" fill="#EFF1F4"/>
<path d="M521.261 297.962C521.261 300.103 522.996 301.838 525.137 301.838C527.277 301.838 529.013 300.103 529.013 297.962C529.013 295.822 527.277 294.086 525.137 294.086C522.996 294.086 521.261 295.822 521.261 297.962Z" fill="#EFF1F4"/>
<path d="M606.961 294.453H539.845C539.564 294.453 539.335 294.682 539.335 294.963C539.335 295.245 539.564 295.473 539.845 295.473H606.961C607.243 295.473 607.471 295.245 607.471 294.963C607.471 294.682 607.243 294.453 606.961 294.453Z" fill="#EFF1F4"/>
<path d="M624.464 297.432H539.845C539.564 297.432 539.335 297.66 539.335 297.942C539.335 298.223 539.564 298.452 539.845 298.452H624.464C624.746 298.452 624.974 298.223 624.974 297.942C624.974 297.66 624.746 297.432 624.464 297.432Z" fill="#EFF1F4"/>
<path d="M620.14 300.41H539.845C539.564 300.41 539.335 300.639 539.335 300.92C539.335 301.202 539.564 301.43 539.845 301.43H620.14C620.421 301.43 620.65 301.202 620.65 300.92C620.65 300.639 620.421 300.41 620.14 300.41Z" fill="#EFF1F4"/>
<path d="M521.261 317.587C521.261 319.728 522.996 321.463 525.137 321.463C527.277 321.463 529.013 319.728 529.013 317.587C529.013 315.447 527.277 313.711 525.137 313.711C522.996 313.711 521.261 315.447 521.261 317.587Z" fill="#EFF1F4"/>
<path d="M606.961 314.119H539.845C539.564 314.119 539.335 314.347 539.335 314.629C539.335 314.911 539.564 315.139 539.845 315.139H606.961C607.243 315.139 607.471 314.911 607.471 314.629C607.471 314.347 607.243 314.119 606.961 314.119Z" fill="#EFF1F4"/>
<path d="M624.464 317.097H539.845C539.564 317.097 539.335 317.326 539.335 317.607C539.335 317.889 539.564 318.117 539.845 318.117H624.464C624.746 318.117 624.974 317.889 624.974 317.607C624.974 317.326 624.746 317.097 624.464 317.097Z" fill="#EFF1F4"/>
<path d="M620.14 320.076H539.845C539.564 320.076 539.335 320.304 539.335 320.586C539.335 320.868 539.564 321.096 539.845 321.096H620.14C620.421 321.096 620.65 320.868 620.65 320.586C620.65 320.304 620.421 320.076 620.14 320.076Z" fill="#EFF1F4"/>
<path d="M521.261 337.253C521.261 339.393 522.996 341.129 525.137 341.129C527.277 341.129 529.013 339.393 529.013 337.253C529.013 335.112 527.277 333.377 525.137 333.377C522.996 333.377 521.261 335.112 521.261 337.253Z" fill="#EFF1F4"/>
<path d="M606.961 333.744H539.845C539.564 333.744 539.335 333.972 539.335 334.254C539.335 334.536 539.564 334.764 539.845 334.764H606.961C607.243 334.764 607.471 334.536 607.471 334.254C607.471 333.972 607.243 333.744 606.961 333.744Z" fill="#EFF1F4"/>
<path d="M624.464 336.763H539.845C539.564 336.763 539.335 336.991 539.335 337.273C539.335 337.555 539.564 337.783 539.845 337.783H624.464C624.746 337.783 624.974 337.555 624.974 337.273C624.974 336.991 624.746 336.763 624.464 336.763Z" fill="#EFF1F4"/>
<path d="M620.14 339.741H539.845C539.564 339.741 539.335 339.97 539.335 340.251C539.335 340.533 539.564 340.761 539.845 340.761H620.14C620.421 340.761 620.65 340.533 620.65 340.251C620.65 339.97 620.421 339.741 620.14 339.741Z" fill="#EFF1F4"/>
<path d="M477.727 256.55C489.197 256.55 498.494 247.253 498.494 235.783C498.494 224.314 489.197 215.016 477.727 215.016C466.258 215.016 456.96 224.314 456.96 235.783C456.96 247.253 466.258 256.55 477.727 256.55Z" fill="#F77FA4"/>
<path d="M170.503 118.279L167.399 117.696C165.186 117.28 163.454 115.565 162.583 113.49V113.49C161.727 111.452 161.788 109.125 163.035 107.3L164.873 104.611C165.607 103.51 165.485 102.041 164.546 101.143L162.547 99.144L160.548 97.1448C159.609 96.2064 158.141 96.084 157.08 96.8184L154.416 98.6387C152.581 99.8934 150.229 99.9321 148.174 99.0814V99.0814C146.11 98.2268 144.413 96.5156 144 94.3203L143.412 91.188C143.167 89.8824 142.025 88.944 140.719 88.944H137.904H135.089C133.783 88.944 132.641 89.8824 132.396 91.188L131.813 94.2923C131.397 96.5046 129.682 98.2368 127.606 99.1082V99.1082C125.568 99.9639 123.242 99.9034 121.417 98.6562L118.728 96.8184C117.626 96.084 116.157 96.2064 115.26 97.1448L113.261 99.144L111.261 101.143C110.323 102.082 110.201 103.55 110.935 104.611L112.755 107.275C114.01 109.11 114.049 111.463 113.198 113.517V113.517C112.344 115.581 110.632 117.278 108.437 117.691L105.305 118.279C103.999 118.524 103.061 119.666 103.061 120.972V123.787V126.602C103.061 127.908 103.999 129.05 105.305 129.295L108.409 129.878C110.621 130.294 112.353 132.009 113.225 134.085V134.085C114.081 136.123 114.02 138.449 112.773 140.274L110.935 142.963C110.201 144.065 110.323 145.534 111.261 146.431L113.261 148.43L115.26 150.43C116.198 151.368 117.667 151.49 118.728 150.756L121.391 148.936C123.227 147.681 125.579 147.642 127.634 148.493V148.493C129.697 149.348 131.395 151.059 131.807 153.254L132.396 156.386C132.641 157.692 133.783 158.63 135.089 158.63H137.904H140.719C142.025 158.63 143.167 157.692 143.412 156.386L143.995 153.282C144.411 151.07 146.126 149.338 148.202 148.466V148.466C150.239 147.61 152.566 147.671 154.391 148.918L157.08 150.756C158.181 151.49 159.65 151.368 160.548 150.43L162.547 148.43L164.546 146.431C165.485 145.493 165.607 144.024 164.873 142.963L163.052 140.3C161.798 138.464 161.759 136.112 162.61 134.057V134.057C163.464 131.994 165.175 130.296 167.371 129.884L170.503 129.295C171.809 129.05 172.747 127.908 172.747 126.602V123.787V120.972C172.747 119.666 171.809 118.524 170.503 118.279ZM137.822 141.046C128.275 141.046 120.564 133.334 120.564 123.787C120.564 114.24 128.275 106.529 137.822 106.529C147.369 106.529 155.081 114.24 155.081 123.787C155.081 133.334 147.369 141.046 137.822 141.046Z" fill="#A0BDE5"/>
<path d="M750.598 396.413L748.142 395.945C746.499 395.632 745.211 394.375 744.579 392.827V392.827C743.932 391.243 743.952 389.426 744.913 388.01L746.273 386.009C746.844 385.193 746.722 384.05 746.028 383.357L744.519 381.847L743.009 380.338C742.315 379.644 741.173 379.522 740.357 380.093L738.34 381.462C736.931 382.42 735.115 382.443 733.54 381.794V381.794C731.984 381.152 730.732 379.86 730.418 378.207L729.953 375.768C729.749 374.789 728.892 374.054 727.913 374.054H725.751H723.588C722.568 374.054 721.711 374.748 721.548 375.768L721.08 378.224C720.767 379.867 719.51 381.154 717.962 381.787V381.787C716.378 382.434 714.561 382.414 713.146 381.452L711.144 380.093C710.328 379.522 709.186 379.644 708.492 380.338L706.983 381.847L705.473 383.357C704.779 384.05 704.657 385.193 705.228 386.009L706.598 388.025C707.555 389.435 707.578 391.251 706.929 392.826V392.826C706.288 394.382 704.996 395.633 703.343 395.948L700.903 396.413C699.924 396.617 699.19 397.474 699.19 398.453V400.615V402.778C699.19 403.798 699.883 404.654 700.903 404.818L703.359 405.285C705.002 405.598 706.29 406.855 706.922 408.404V408.404C707.569 409.988 707.549 411.804 706.588 413.22L705.228 415.222C704.657 416.038 704.779 417.18 705.473 417.874L706.983 419.383L708.492 420.893C709.186 421.586 710.328 421.709 711.144 421.138L713.161 419.768C714.57 418.811 716.386 418.788 717.961 419.437V419.437C719.517 420.078 720.769 421.37 721.083 423.023L721.548 425.462C721.752 426.442 722.609 427.176 723.588 427.176H725.751H727.913C728.933 427.176 729.79 426.482 729.953 425.462L730.421 423.006C730.734 421.363 731.991 420.076 733.539 419.443V419.443C735.123 418.796 736.94 418.816 738.355 419.778L740.357 421.138C741.173 421.709 742.315 421.586 743.009 420.893L744.519 419.383L746.028 417.874C746.722 417.18 746.844 416.038 746.273 415.222L744.903 413.205C743.946 411.796 743.923 409.98 744.572 408.405V408.405C745.213 406.849 746.505 405.597 748.158 405.282L750.598 404.818C751.577 404.614 752.311 403.757 752.311 402.778V400.615V398.453C752.311 397.474 751.577 396.617 750.598 396.413ZM725.791 413.712C718.529 413.712 712.695 407.837 712.695 400.615C712.695 393.353 718.57 387.518 725.791 387.518C733.013 387.518 738.888 393.394 738.888 400.615C738.888 407.837 733.013 413.712 725.791 413.712Z" fill="#F8F9FB"/>
<path d="M440.803 206.122L439.14 205.8C437.963 205.573 437.04 204.661 436.579 203.555V203.555C436.125 202.465 436.168 201.223 436.837 200.251L437.825 198.818C438.233 198.247 438.151 197.472 437.662 196.982L436.601 195.922L435.54 194.861C435.05 194.371 434.275 194.29 433.704 194.698L432.291 195.672C431.312 196.346 430.063 196.371 428.963 195.92V195.92C427.866 195.471 426.951 194.566 426.726 193.402L426.401 191.719C426.278 191.026 425.666 190.536 424.973 190.536H423.463H421.954C421.26 190.536 420.648 191.026 420.526 191.719L420.204 193.382C419.977 194.559 419.065 195.483 417.959 195.944V195.944C416.869 196.398 415.627 196.355 414.655 195.685L413.222 194.698C412.651 194.29 411.876 194.371 411.386 194.861L410.326 195.922L409.265 196.982C408.775 197.472 408.694 198.247 409.102 198.818L410.076 200.232C410.75 201.211 410.775 202.46 410.324 203.56V203.56C409.875 204.656 408.97 205.572 407.806 205.797L406.123 206.122C405.43 206.244 404.94 206.856 404.94 207.55V209.059V210.569C404.94 211.262 405.43 211.874 406.123 211.997L407.786 212.318C408.963 212.545 409.887 213.457 410.348 214.564V214.564C410.802 215.653 410.759 216.895 410.089 217.867L409.102 219.3C408.694 219.871 408.775 220.646 409.265 221.136L410.326 222.197L411.386 223.258C411.876 223.747 412.651 223.829 413.222 223.421L414.636 222.447C415.615 221.772 416.864 221.747 417.964 222.198V222.198C419.06 222.648 419.976 223.553 420.201 224.716L420.526 226.399C420.648 227.093 421.26 227.582 421.954 227.582H423.463H424.973C425.666 227.582 426.278 227.093 426.401 226.399L426.722 224.736C426.95 223.559 427.861 222.636 428.968 222.174V222.174C430.057 221.721 431.3 221.764 432.271 222.433L433.704 223.421C434.275 223.829 435.05 223.747 435.54 223.258L436.601 222.197L437.662 221.136C438.151 220.646 438.233 219.871 437.825 219.3L436.851 217.887C436.176 216.908 436.151 215.659 436.602 214.559V214.559C437.052 213.462 437.957 212.547 439.12 212.322L440.803 211.997C441.497 211.874 441.986 211.262 441.986 210.569V209.059V207.55C441.986 206.856 441.497 206.244 440.803 206.122ZM423.422 218.239C418.363 218.239 414.242 214.118 414.242 209.059C414.242 204 418.363 199.879 423.422 199.879C428.482 199.879 432.602 204 432.602 209.059C432.602 214.118 428.522 218.239 423.422 218.239Z" fill="#F8F9FB"/>
<path d="M77.9687 612.081C70.6247 619.507 66.5039 629.299 66.5855 639.54V639.54C66.6941 650.831 80.6733 646.578 84.1956 635.85C86.7325 628.124 90.4538 620.815 95.1863 614.407C97.7338 610.97 100.512 607.743 103.485 604.727C105.567 602.615 103.519 598.693 100.694 599.597V599.597C92.4119 602.249 84.0887 605.921 77.9687 612.081Z" fill="#CFF0EF"/>
<path d="M289.115 576.249C294.579 581.026 299.485 587.337 306.551 588.993C320.547 592.273 334.737 594.776 349.003 596.7C351.941 597.067 354.838 597.393 357.775 597.72C343.677 594.88 329.787 591.284 316.189 586.785C309.816 584.675 305.606 578.774 301.042 573.851C297.363 569.882 292.1 567.324 286.008 567.324C285.967 567.324 285.885 567.324 285.845 567.324C282.594 567.35 279.344 567.417 276.095 567.523C272.472 567.641 272.551 571.473 276.175 571.485V571.485C281.271 571.485 285.739 573.299 289.115 576.249Z" fill="#CFF0EF"/>
<path d="M299.635 694.824C295.759 694.416 291.842 694.212 287.966 694.212C284.58 694.212 281.153 694.375 277.766 694.701V694.701C273.326 695.382 273.436 701.708 277.705 703.107C278.846 703.481 279.982 703.875 281.112 704.289C296.453 711.021 309.998 721.507 326.767 725.057C332.112 726.199 337.416 726.729 342.72 726.729C348.677 726.729 354.674 726.077 360.631 724.853C362.994 724.369 365.333 723.773 367.65 723.094C371.907 721.845 371.602 715.84 367.363 714.53V714.53C344.964 707.472 323.054 698.333 299.635 694.824Z" fill="#CFF0EF"/>
<path d="M641.661 601.963C635.256 601.8 628.891 601.759 622.485 601.759C610.653 601.759 598.822 602.004 586.99 602.33C593.518 602.697 600.046 603.105 606.574 603.636C626.647 605.309 646.15 608.001 664.591 616.039C669.936 618.372 674.875 621.24 679.356 624.58C691.537 633.658 708.364 630.48 698.781 618.691V618.691C685.358 602.208 661.572 602.453 641.661 601.963Z" fill="#CFF0EF"/>
<path d="M234.151 697.231C214.445 697.231 194.697 699.189 174.991 699.393C173.808 699.393 172.665 699.434 171.482 699.434C145.125 699.434 117.218 695.925 94.6557 682.217V682.217C90.2393 679.522 84.3221 683.218 86.5974 687.864C87.8777 690.479 89.3643 693.01 91.0653 695.436C100.49 708.941 114.362 718.039 130.478 723.098C139.495 725.913 148.838 727.097 158.181 727.097C165.281 727.097 172.421 726.444 179.479 725.342C206.914 721.021 231.382 707.453 257.601 699.427C258.149 699.259 258.095 698.463 257.529 698.373V698.373C249.696 697.557 241.903 697.231 234.151 697.231Z" fill="#CFF0EF"/>
<path d="M144.146 588.377C158.916 584.745 173.767 581.318 188.741 578.34C200.593 575.981 212.544 573.879 224.553 572.159C226.163 571.928 226.066 569.467 224.441 569.405V569.405C220.157 569.241 215.873 569.16 211.63 569.16C198.859 569.16 186.17 569.894 173.482 571.771C154.5 574.569 135.856 580.901 120.139 591.143C118.512 592.202 119.587 594.511 121.462 594.007V594.007C129.01 592.13 136.558 590.213 144.146 588.377Z" fill="#CFF0EF"/>
<path d="M397.025 603.595C418.486 605.676 440.069 606.451 461.611 606.451C479.482 606.451 497.393 605.921 515.263 605.227C539.172 604.289 563.081 603.065 586.99 602.33C568.181 601.31 549.331 601.025 530.482 601.025C514.162 601.025 497.882 601.229 481.562 601.433C470.465 601.555 459.326 601.677 448.229 601.677C419.261 601.677 390.334 600.984 361.488 598.128C360.264 598.005 358.999 597.883 357.775 597.761C366.874 599.597 376.054 601.106 385.234 602.33C389.191 602.779 393.108 603.187 397.025 603.595Z" fill="#CFF0EF"/>
<path d="M703.004 655.493C702.392 654.262 700.675 654.114 699.842 655.207V655.207C693.029 664.02 683.645 670.058 673.526 675.077C641.09 691.233 604.125 695.436 567.895 695.436C566.018 695.436 564.182 695.436 562.305 695.395C537.295 695.109 512.285 693.11 487.274 693.11C475.116 693.11 462.917 693.6 450.799 694.946C437.58 696.823 424.605 699.883 412.202 704.575C404.165 707.921 396.372 711.756 388.334 715.142V715.142C386.026 716.104 386.294 719.481 388.741 719.994C398.601 722.065 408.638 723.343 418.649 723.343C427.502 723.343 436.315 722.364 445.005 720.038C460.346 715.958 474.014 708.002 488.498 701.882C494.21 699.761 500.004 698.129 506.042 697.149C509.347 696.823 512.652 696.701 515.957 696.701C520.281 696.701 524.606 696.945 528.931 697.394C567.242 703.106 601.718 723.343 640.764 725.709C642.518 725.832 644.313 725.873 646.149 725.873C663.449 725.873 682.053 720.813 693.518 708.043C706.533 693.518 709.92 673.445 703.025 655.533C703.018 655.52 703.011 655.506 703.004 655.493Z" fill="#CFF0EF"/>
<path d="M664.632 616.08C646.19 608.042 626.688 605.349 606.614 603.677C600.086 603.146 593.558 602.697 587.03 602.371C563.122 603.105 539.213 604.329 515.304 605.268C497.434 605.961 479.522 606.492 461.652 606.492C440.069 606.492 418.526 605.757 397.066 603.636C393.149 603.269 389.232 602.82 385.315 602.33C376.094 601.106 366.914 599.597 357.857 597.761C354.919 597.434 352.022 597.108 349.085 596.741C334.791 594.818 320.597 592.316 306.624 589.037C299.562 587.38 294.66 581.077 289.213 576.287C285.836 573.317 281.361 571.485 276.257 571.485C264.81 571.446 253.401 570.85 241.993 570.264C240.901 570.208 239.807 570.241 238.721 570.367C221.971 572.318 205.301 575.101 188.822 578.381C173.89 581.359 159.038 584.786 144.228 588.417C136.639 590.294 129.091 592.212 121.502 594.129C120.101 594.485 118.69 594.84 117.273 595.196C114.6 595.866 112.075 597.057 109.966 598.831C104.492 603.436 99.5371 608.642 95.268 614.448C84.633 628.81 79.1049 647.756 80.6482 665.802C80.9983 669.895 82.9912 673.674 86.1716 676.275C88.8487 678.465 91.7099 680.476 94.6968 682.298C117.259 696.007 145.166 699.516 171.523 699.516C172.706 699.516 173.89 699.516 175.032 699.475C194.738 699.23 214.486 697.313 234.192 697.313C241.985 697.313 249.778 697.598 257.53 698.455V698.455C259.087 698.701 260.679 698.588 262.2 698.168C267.327 696.754 272.521 695.594 277.807 694.742C281.194 694.416 284.621 694.253 288.007 694.253C291.883 694.253 295.8 694.457 299.676 694.865C323.095 698.373 345.005 707.513 367.363 714.489C369.785 715.238 372.219 715.963 374.671 716.651C378.761 717.799 383.113 717.465 387.028 715.817C387.465 715.633 387.9 715.449 388.334 715.265C396.331 711.837 404.165 708.043 412.202 704.697C424.646 700.005 437.621 696.945 450.799 695.069C462.958 693.681 475.116 693.233 487.274 693.233C512.285 693.233 537.295 695.232 562.305 695.517C564.141 695.558 566.018 695.558 567.895 695.558C604.126 695.558 641.09 691.356 673.526 675.199C683.645 670.181 693.029 664.142 699.842 655.329V655.329C701.131 653.737 701.209 651.516 700.303 649.679C692.949 634.764 680.642 623.013 664.632 616.08Z" fill="#AFE6E4"/>
<path d="M334.396 601.106C334.396 606.041 338.397 610.041 343.332 610.041H637.785C643.905 610.041 648.842 605.105 648.842 598.985V598.985C648.842 595.222 645.791 592.171 642.028 592.171H343.332C338.397 592.171 334.396 596.172 334.396 601.106V601.106Z" fill="url(#paint2_linear)"/>
<path d="M364.507 292.822C364.669 292.903 364.832 292.984 364.995 293.065C364.996 293.066 364.997 293.066 364.998 293.066V293.066C365.007 293.066 365.009 293.054 365.001 293.05C363.851 292.534 363.699 292.458 364.507 292.822Z" fill="url(#paint3_linear)"/>
<path d="M371.81 297.106C371.93 297.226 372.05 297.306 372.17 297.425C372.175 297.429 372.184 297.432 372.191 297.432V297.432C372.214 297.432 372.22 297.402 372.201 297.388C371.235 296.652 371.13 296.545 371.81 297.106Z" fill="url(#paint4_linear)"/>
<path d="M381.806 333.989C381.724 334.152 381.643 334.356 381.561 334.519C381.276 335.213 381.357 335.05 381.806 333.989Z" fill="url(#paint5_linear)"/>
<path d="M384.295 285.722C379.276 281.438 373.768 278.256 367.526 276.093C363.364 274.665 358.142 277.725 357.204 281.969C356.143 286.661 358.632 290.741 363.079 292.291C363.306 292.376 363.989 292.719 364.507 292.905C364.659 292.96 364.692 292.853 364.548 292.781V292.781C363.737 292.416 363.893 292.494 365.057 292.976C365.062 292.978 365.061 292.985 365.056 292.985V292.985C365.051 292.985 365.05 292.991 365.054 292.993C365.212 293.069 365.368 293.11 365.486 293.189C366.751 293.801 368.016 294.494 369.199 295.229C369.529 295.427 370.931 296.616 371.734 297.104C371.867 297.185 371.92 297.093 371.81 296.983V296.983C371.124 296.418 371.276 296.532 372.227 297.284C372.237 297.292 372.248 297.309 372.234 297.309V297.309C372.221 297.309 372.2 297.327 372.21 297.335C372.358 297.449 372.474 297.563 372.626 297.677C373.156 298.125 373.687 298.615 374.176 299.105C375.196 300.084 376.176 301.104 377.073 302.205C377.4 302.613 377.726 303.021 378.093 303.429C376.461 301.553 378.012 303.389 378.338 303.878C379.154 305.061 379.888 306.245 380.541 307.509C380.868 308.121 381.194 308.774 381.48 309.386C381.503 309.455 381.538 309.524 381.573 309.593C381.592 309.632 381.595 309.63 381.567 309.596V309.596C381.563 309.592 381.56 309.587 381.558 309.582C381.318 308.981 381.441 309.269 381.888 310.365V310.365C381.857 310.29 381.803 310.313 381.83 310.39C382.21 311.444 382.595 312.502 382.867 313.589C383.071 314.323 383.234 315.098 383.397 315.833C383.433 315.988 383.497 316.205 383.565 316.448C383.677 316.847 383.67 317.217 383.724 317.628V317.628C383.764 317.995 383.805 318.403 383.846 318.77C383.887 319.341 383.928 319.913 383.928 320.525C383.968 322.075 383.928 323.625 383.805 325.176C383.764 325.543 383.724 325.951 383.683 326.318V326.318C383.613 326.854 383.67 326.973 383.524 327.493C383.449 327.76 383.381 327.988 383.356 328.113C383.071 329.46 382.744 330.765 382.296 332.03C382.052 332.762 381.768 333.493 381.523 334.225C381.521 334.23 381.518 334.235 381.514 334.24V334.24C381.487 334.27 381.533 334.285 381.55 334.248C381.608 334.12 381.666 333.983 381.724 333.866C381.276 334.886 381.194 335.09 381.48 334.397C381.398 334.56 381.316 334.764 381.235 334.927C380.582 336.314 379.807 337.701 378.991 339.007C376.665 342.761 378.052 348.432 382.01 350.513C386.131 352.675 391.027 351.492 393.516 347.493C405.796 327.869 402.043 300.9 384.295 285.722Z" fill="url(#paint6_linear)"/>
<path d="M381.567 309.589C381.59 309.644 381.623 309.695 381.642 309.751V309.751C381.662 309.81 381.695 309.865 381.721 309.923C381.799 310.097 381.899 310.272 381.969 310.447C381.505 309.403 381.371 309.129 381.567 309.589Z" fill="url(#paint7_linear)"/>
<path d="M329.5 432.113C322.88 425.983 327.627 403.614 329.103 397.407C329.36 396.325 329.551 395.244 329.653 394.136L330.44 385.584C331.068 378.751 327.112 372.323 320.73 369.804V369.804C310.523 365.776 298.824 373.421 296.08 384.045C290.79 404.522 276.951 433.559 240.76 447.821C194.21 466.192 193.285 538.409 195.457 571.586C196.097 581.351 204.281 588.534 214.066 588.692L408.361 591.842C419.532 592.023 428.625 583.038 428.029 571.882C426.305 539.6 420.049 477.777 397.351 454.104C382.948 439.09 337.211 439.253 329.5 432.113Z" fill="url(#paint8_linear)"/>
<path d="M366.829 277.558C364.492 275.454 361.434 274.302 358.306 273.988C276.263 265.736 273.3 329.37 276.583 365.078C279.928 401.431 327.705 420.077 347.371 422.239C362.304 423.871 369.403 405.593 374.911 381.97L380.786 353.654C382.01 347.534 383.316 341.414 384.703 335.539C392.097 304.431 374.767 284.702 366.829 277.558Z" fill="url(#paint9_linear)"/>
<path d="M393.352 450.554C381.11 441.2 357.798 437.927 342.01 435.36C341.924 435.346 341.893 435.284 341.902 435.198V435.198C341.903 435.186 341.905 435.167 341.907 435.155C342.471 432.386 341.654 429.579 339.537 427.666C335.416 424.034 329.745 425.218 325.828 428.4C324.971 429.094 324.196 429.869 323.38 430.603C323.063 430.921 322.745 431.238 322.39 431.518C322.38 431.526 322.34 431.542 322.328 431.542V431.542C322.326 431.542 322.319 431.542 322.317 431.543C322.234 431.585 322.072 431.707 321.83 431.868C321.723 431.939 321.616 432.003 321.513 432.058C321.299 432.173 321.028 432.089 320.944 431.861V431.861C320.935 431.835 320.926 431.815 320.913 431.791C319.9 429.845 318.921 427.944 316.893 426.809C314.649 425.503 311.956 425.544 309.631 426.686C308.284 427.339 307.142 428.359 306.081 429.42V429.42C305.507 429.994 304.577 429.899 304.109 429.236C303.319 428.115 302.413 427.109 301.144 426.401C296.983 424.075 293.107 426.197 289.475 428.359V428.359C289.331 428.455 289.091 428.359 289.043 428.192C288.915 427.745 288.787 427.297 288.659 426.85C287.884 424.32 286.579 421.831 284.253 420.403C281.805 418.934 278.786 418.69 276.052 419.506C272.467 420.586 270.183 423.085 268.674 426.122C266.702 430.092 264.758 434.223 261.16 436.812C255.317 441.016 248.572 444.768 240.801 447.821C194.251 466.192 193.326 538.409 195.498 571.586C196.138 581.351 204.322 588.534 214.106 588.692L428.726 592.171C428.685 592.171 428.685 477.523 393.352 450.554Z" fill="url(#paint10_linear)"/>
<path d="M393.352 450.554C388.738 447.017 382.556 444.352 375.796 442.268C362.286 438.101 350.271 451.164 352.279 465.158C353.523 473.83 354.467 482.541 355.164 491.518C356.714 511.306 356.877 531.175 355.898 550.963C355.408 560.878 354.633 570.792 353.572 580.666V580.666C353.012 586.148 357.156 591.025 362.666 591.113L428.685 592.171C428.685 592.171 428.685 477.523 393.352 450.554Z" fill="url(#paint11_linear)"/>
<path d="M301.552 501.187C290.251 482.256 277.358 464.345 266.628 445.087V445.087C264.081 440.503 258.092 439.088 253.547 441.706C249.625 443.964 245.37 446.031 240.76 447.861C194.21 466.232 193.285 538.449 195.457 571.626C196.097 581.391 204.281 588.575 214.066 588.733L309.445 590.278C319.956 590.448 328.956 582.398 327.927 571.936C327.598 568.592 327.123 565.258 326.522 561.938C322.564 540.233 312.772 519.955 301.552 501.187Z" fill="url(#paint12_linear)"/>
<path d="M483.684 480.705C472.26 487.845 464.385 500.004 452.961 515.018C444.293 526.412 381.708 561.25 352.023 577.393C343.147 582.22 332.129 579.541 326.343 571.258L283.349 509.713C275.869 499.005 260.298 498.225 251.785 508.131L231.933 531.233C225.489 538.731 225.484 549.789 232.04 557.188C256.414 584.699 312.901 646.63 327.909 647.169C345.217 647.828 447.583 559.949 468.52 541.81C471.019 539.646 473.968 538.204 477.157 537.332C510.335 528.262 522.221 509.1 526.447 495.577C529.121 487.022 522.669 479.321 513.762 478.323C503.285 477.148 490.062 476.711 483.684 480.705Z" fill="#F47D7D"/>
<path d="M374.206 590.15C368.956 580.73 350.606 578.169 341.105 583.271V583.271C334.737 586.691 333.178 581.815 328.484 576.319L280.371 519.991C272.194 510.418 257.312 510.69 249.491 520.556L240.096 532.406C234.396 539.596 234.315 549.727 240.02 556.913C261.536 584.015 312.832 646.626 327.95 647.17C334.229 647.397 351.663 636.003 372.35 620.517C380.911 614.108 381.076 601.507 375.506 592.379C375.05 591.631 374.617 590.888 374.206 590.15Z" fill="#F8F9FB"/>
<path d="M351.226 586.668C349.725 582.839 342.467 582.538 338.838 584.472V584.472C335.91 586.032 335.052 583.684 333.152 580.964L283.354 509.68C275.872 498.969 260.297 498.192 251.785 508.104L231.924 531.234C225.485 538.732 225.481 549.786 232.036 557.184C256.408 584.692 312.901 646.63 327.909 647.17C332.033 647.328 341.039 642.417 352.617 634.622C363.15 627.531 363.47 611.172 357.395 600.022C354.873 595.393 352.822 590.739 351.226 586.668Z" fill="#3576EE"/>
<path d="M690.54 430.154L499.392 429.95C491.15 429.95 483.928 435.377 481.603 443.251L445.489 566.592C441.74 579.396 451.341 592.212 464.683 592.212H634.466C643.193 592.212 650.913 586.553 653.539 578.23L697.312 439.498C698.781 434.846 695.354 430.154 690.54 430.154Z" fill="url(#paint13_linear)"/>
<path d="M374.87 284.784V284.784C374.87 283.561 373.439 282.676 372.811 281.627C372.466 281.051 372.05 280.495 371.565 279.97C353.409 260.018 323.544 253.858 298.044 260.63C271.932 267.566 250.756 288.089 238.843 311.834C235.701 318.077 233.131 324.646 230.968 331.296C228.888 337.783 227.011 344.352 224.604 350.717C224.359 351.37 224.073 352.022 223.828 352.675C223.706 352.961 223.543 353.287 223.42 353.573C223.343 353.75 223.264 353.927 223.183 354.102C222.179 356.3 220.629 358.204 218.721 359.687C214.455 363.003 209.779 365.931 205.754 369.158C201.225 372.749 197.064 377.033 194.656 382.337C192.168 387.804 192.086 393.557 194.085 399.187C194.646 400.763 195.283 402.316 195.973 403.851C199.141 410.898 198.821 419.066 193.594 424.756C186.676 432.287 179.461 439.68 176.378 449.534C170.421 468.466 184.62 489.804 203.755 493.435V493.435C205.748 493.834 207.713 494.402 209.523 495.327C216.601 498.94 224.573 501.08 232.192 502.452C235.497 503.064 238.802 503.554 242.148 504.002C242.8 504.084 243.453 504.166 244.065 504.206C248.214 504.869 252.393 504.995 256.551 504.636C257.963 504.514 259.383 504.498 260.801 504.515C265.269 504.569 269.797 503.594 273.808 501.799C284.539 496.985 289.924 485.275 291.23 474.259C292.658 462.182 287.844 450.187 282.621 439.579C281.397 437.131 280.173 434.724 279.031 432.276C278.582 431.297 278.133 430.358 277.725 429.379C277.644 429.134 277.48 428.849 277.399 428.604C277.072 427.829 276.787 427.054 276.501 426.278C275.754 424.186 275.212 422.059 274.75 419.866C274.665 419.464 274.543 419.06 274.543 418.649V418.649V418.649C274.543 418.386 274.569 418.108 274.698 417.879C276.665 414.375 280.248 411.565 283.641 409.632C289.353 406.368 295.31 403.798 300.532 399.758C305.265 396.086 309.345 391.517 311.508 385.846C314.16 378.828 312.976 371.198 311.508 364.058C311.018 361.692 310.488 359.326 310.08 356.918C309.998 356.102 309.916 355.286 309.876 354.47C309.794 353.165 309.753 351.859 309.753 350.554C309.753 349.942 309.794 349.37 309.835 348.758C309.835 348.677 309.835 348.595 309.876 348.473C309.982 347.9 310.121 347.339 310.281 346.783C310.579 345.753 311.028 344.775 311.537 343.832C311.568 343.774 311.599 343.716 311.63 343.658C311.853 343.25 312.109 342.875 312.4 342.472C312.458 342.393 312.499 342.3 312.568 342.23V342.23C313.303 341.414 314.037 340.598 314.853 339.823C315.22 339.456 315.628 339.13 316.036 338.762V338.762C316.159 338.639 316.313 338.551 316.453 338.448C316.774 338.213 317.263 337.839 317.424 337.742C317.954 337.375 318.484 337.049 319.015 336.722C319.912 336.151 320.851 335.621 321.83 335.131C322.401 334.846 322.932 334.56 323.503 334.315C323.707 334.234 324.319 333.948 324.645 333.785C324.931 333.662 325.176 333.581 325.298 333.54C325.91 333.295 326.522 333.091 327.134 332.846C328.562 332.316 329.99 331.867 331.418 331.378C331.742 331.276 332.063 331.175 332.384 331.074C334.313 330.464 336.324 330.188 338.346 330.119C338.403 330.117 338.46 330.115 338.517 330.113C344.148 329.909 350.023 329.419 355.449 327.828C360.386 326.359 364.996 323.789 368.26 319.75C371.443 315.833 373.401 311.059 374.34 306.163C375.604 299.798 375.319 293.27 374.911 286.824C374.87 286.13 374.911 285.478 374.87 284.784ZM182.865 475.32C177.928 467.364 176.378 457.735 179.601 448.841C180.312 446.872 181.202 444.998 182.223 443.199C183.07 441.708 186.025 443.358 185.721 445.046V445.046C183.192 458.837 186.333 472.709 195.064 483.766V483.766C196.156 485.137 194.884 487.049 193.413 486.095C189.168 483.341 185.524 479.611 182.865 475.32ZM216.688 364.752C212.69 369.362 207.712 373.034 203.796 377.767C201.144 380.95 199.063 384.091 197.676 388.008V388.008C197.282 389.115 195.657 389.149 195.859 387.991C196.154 386.311 196.694 384.641 197.512 382.99C201.58 374.774 209.344 369.897 216.647 364.711C216.696 364.676 216.731 364.709 216.688 364.752V364.752ZM306.68 382.9C307.507 381.518 309.726 381.937 309.264 383.479V383.479C307.387 389.803 302.613 394.781 297.35 398.534C291.883 402.451 285.518 404.818 279.928 408.49C278.534 409.419 277.167 410.511 275.936 411.721C275.741 411.912 275.389 411.703 275.476 411.444V411.444C275.479 411.432 275.484 411.422 275.489 411.411C275.691 411.008 275.892 410.606 276.134 410.203C276.328 409.88 276.522 409.556 276.737 409.233C276.849 409.063 276.977 408.902 277.092 408.734C277.135 408.671 277.181 408.604 277.226 408.542C277.232 408.534 277.245 408.521 277.252 408.514V408.514C277.288 408.476 277.295 408.427 277.33 408.388C277.638 408.041 277.947 407.694 278.256 407.347C279.48 406.082 280.785 404.94 282.132 403.798C282.458 403.553 282.825 403.308 283.152 403.063C283.927 402.492 284.702 401.962 285.518 401.431C292.78 396.494 300.165 391.966 305.428 384.785C305.88 384.171 306.296 383.542 306.68 382.9ZM361.406 322.034C357.45 324.594 352.818 325.799 348.148 326.445C347.674 326.511 347.5 325.809 347.942 325.625V325.625C358.509 321.178 367.689 313.63 371.688 302.614V302.614C371.713 302.524 371.889 302.564 371.878 302.657C370.964 310.338 368.29 317.589 361.406 322.034Z" fill="url(#paint14_linear)"/>
<path d="M576.124 517.856C581.647 512.678 583.051 505.201 579.259 501.158C575.468 497.114 567.917 498.034 562.394 503.213C556.87 508.391 555.467 515.868 559.258 519.911C563.05 523.955 570.601 523.035 576.124 517.856Z" fill="#A0BDE5"/>
<path d="M579.278 507.919C577.075 514.488 570.139 519.67 563.815 519.466V519.466C562.116 519.416 560.448 521.144 562.028 521.77C562.982 522.148 564.059 522.368 565.243 522.403C571.567 522.607 578.503 517.426 580.706 510.857C581.076 509.746 581.29 508.664 581.358 507.634C581.454 506.177 579.74 506.533 579.278 507.919V507.919Z" fill="#94B2D6"/>
<path d="M183.804 494.251C182.539 491.844 181.152 489.559 180.009 487.111C178.826 484.582 178.092 481.93 177.847 479.155C177.357 473.851 177.643 468.588 176.256 463.406C175.113 459.082 173.196 454.92 170.666 451.248C164.954 442.925 156.264 436.642 146.349 434.479C145.003 434.194 144.024 435.744 145.003 436.764C155.244 447.454 155.121 463.651 152.551 477.238C150.96 485.561 148.552 493.68 146.961 502.003C145.411 510.204 144.88 518.527 145.452 526.85C146.039 535.278 147.757 543.631 150.533 551.582C150.752 552.211 150.666 552.922 150.956 553.52V553.52C151.183 553.988 151.554 554.463 151.984 554.756C152.067 554.813 152.155 554.859 152.246 554.896C153.76 555.508 155.181 553.234 156.638 552.495C164.457 548.528 171.788 543.409 177.48 536.683C184.008 528.931 188.128 518.976 187.761 508.735C187.557 503.594 186.129 498.78 183.804 494.251Z" fill="url(#paint15_linear)"/>
<path d="M177.684 504.084V504.084C176.319 506.172 173.271 504.994 173.083 502.506C172.997 501.371 172.871 500.237 172.706 499.106C172.505 497.726 172.223 496.38 171.884 495.057C170.435 489.405 170.891 483.469 172.511 477.864C173.238 475.347 173.726 472.752 173.971 470.098C174.175 467.935 170.829 467.976 170.625 470.098V470.098C170.239 474.429 165.78 474.144 165.52 469.803C165.493 469.346 165.468 468.886 165.444 468.425C165.158 462.958 164.668 457.409 161.69 452.676C160.548 450.84 157.651 452.554 158.793 454.349C161.364 458.429 161.812 463.162 162.057 467.894V467.894C162.057 468.144 161.823 468.296 161.61 468.166C160.904 467.737 160.182 467.312 159.487 466.915C157.651 465.814 155.937 468.71 157.814 469.812C159.277 470.706 160.78 471.599 162.243 472.493C162.255 472.501 162.272 472.503 162.284 472.51V472.51C162.32 472.53 162.345 472.577 162.348 472.618C162.593 475.857 162.962 479.056 163.934 482.134C165.444 486.948 167.728 491.477 168.871 496.454V496.454C168.924 496.668 168.705 496.836 168.513 496.729C166.636 495.686 165.012 494.265 163.771 492.497C162.506 490.742 159.609 492.415 160.874 494.17C163.117 497.268 166.011 499.512 169.599 500.858C169.603 500.86 169.608 500.861 169.612 500.861V500.861C169.632 500.861 169.648 500.875 169.65 500.894C170.054 504.311 170.094 507.767 169.728 511.224C169.156 516.854 167.484 522.362 164.913 527.422C163.934 529.339 166.831 531.012 167.81 529.094C169.935 525 171.437 520.613 172.318 516.107C172.411 515.633 172.773 515.278 173.114 514.937V514.937C175.97 512.203 178.5 509.143 180.662 505.798C181.764 503.921 178.867 502.248 177.684 504.084Z" fill="#F8F9FB"/>
<path d="M160.18 499.147C157.406 494.129 153.53 490.09 148.879 486.826C143.819 483.235 138.23 480.42 134.068 475.728C130.029 471.199 127.459 465.365 126.765 459.326C125.949 452.35 127.173 445.373 127.663 438.437C128.438 427.543 126.479 413.304 115.096 408.408C113.709 407.837 112.485 408.775 112.689 410.244C113.831 417.914 109.996 425.503 105.1 431.134C99.8371 437.172 93.2274 441.742 87.189 446.882C81.5994 451.615 76.2954 457.082 73.317 463.896C70.2978 470.873 70.2978 478.666 72.8682 485.765C75.3978 492.782 80.1306 498.78 85.965 503.39C88.9434 505.716 92.085 507.756 95.4306 509.47C98.5722 511.102 101.877 512.407 105.141 513.876C108.242 515.263 111.383 516.854 113.954 519.139C116.687 521.587 118.483 524.688 119.462 528.238C121.42 535.092 120.808 542.354 122.236 549.29C123.583 555.818 126.806 562.183 133.211 564.958C140.515 568.099 148.471 565.978 155.366 562.836V562.836C156.121 562.483 157.006 563.163 156.857 563.983C156.334 566.852 155.892 569.727 155.529 572.628C155.284 574.709 158.548 574.668 158.793 572.628C159.279 568.538 160.006 564.408 160.815 560.238C160.827 560.176 160.858 560.123 160.913 560.093V560.093C160.943 560.076 160.972 560.054 161.001 560.038C161.213 559.924 161.377 559.784 161.498 559.627C162.32 558.556 161.478 556.877 161.748 555.554C165.623 536.503 170.018 516.895 160.18 499.147Z" fill="url(#paint16_linear)"/>
<path d="M149.98 511.999C149.164 515.962 148.126 519.852 146.831 523.667C146.777 523.826 146.554 523.808 146.553 523.64V523.64C146.553 523.631 146.552 523.623 146.551 523.614C145.695 518.314 144.715 512.933 142.759 507.919C140.923 503.186 138.23 498.902 134.231 495.72V495.72C133.561 495.198 133.272 494.314 133.483 493.49C134.321 490.208 134.452 486.839 133.987 483.439C133.619 480.869 129.743 481.97 130.111 484.5V484.5C130.651 488.526 126.051 490.56 122.438 488.703C122.017 488.486 121.596 488.269 121.175 488.05V488.05C114.861 484.793 115.79 476.671 117.742 469.84C118.254 468.05 118.523 466.176 118.523 464.263C118.523 461.693 114.484 461.693 114.484 464.263C114.484 465.089 114.422 465.908 114.301 466.714C113.325 473.216 105.368 471.413 106.977 465.038V465.038C109.915 453.329 119.666 444.516 120.604 432.113C120.808 429.542 116.769 429.542 116.565 432.113C116.112 438.239 113.19 443.6 110.126 448.912C108.097 452.429 103.07 452.081 103.672 448.066V448.066C104.08 445.536 100.204 444.434 99.7962 447.005C99.021 451.86 100 456.756 102.815 460.836V460.836C103.248 461.392 103.585 462.106 103.387 462.782C102.079 467.241 101.69 472.076 103.264 476.462V476.462C104.238 479.268 103.003 482.706 100.169 481.819C97.4319 480.962 95.1053 478.949 93.7578 476.014C92.697 473.647 89.229 475.687 90.2898 478.054C93.3906 484.867 101.469 488.131 108.446 485.357V485.357C108.873 485.174 109.409 485.155 109.76 485.46C110.467 486.076 111.199 486.667 111.955 487.234C112.995 487.994 114.085 488.694 115.206 489.355C124.546 494.861 122.686 506.466 113.505 500.698V500.698C111.302 499.31 109.303 502.778 111.465 504.166C118.623 508.668 127.486 508.343 134.324 503.773C135 503.321 135.927 503.458 136.394 504.125V504.125C139.087 508.368 140.433 513.305 141.453 518.16V518.16C142.724 524.323 137.053 529.565 132.681 525.039C132.557 524.91 132.435 524.78 132.314 524.647C130.559 522.73 127.744 525.586 129.458 527.503C133.13 531.542 138.148 533.827 143.534 534.194V534.194C143.695 534.194 143.828 534.319 143.84 534.479C143.874 534.955 143.908 535.432 143.942 535.908C144.921 549.29 143.983 562.754 141.127 575.851C140.596 578.381 144.472 579.442 145.003 576.912C147.532 565.243 148.675 553.289 148.226 541.334C148.176 540.13 148.12 538.926 148.049 537.722C147.844 534.228 148.394 530.728 149.626 527.453C151.39 522.764 152.791 517.958 153.815 513.019C154.387 510.53 150.511 509.429 149.98 511.999Z" fill="#F8F9FB"/>
<path d="M222.441 490.701C221.462 486.581 221.299 482.378 221.829 478.135C222.931 469.853 226.032 461.978 227.011 453.655C227.868 446.27 226.684 439.212 223.012 432.725C218.25 424.39 210.807 418.065 204.408 410.958C202.751 409.117 201.648 406.871 200.518 404.668C199.235 402.167 197.485 399.869 195.228 397.922C193.636 396.535 191.596 398.33 192.453 400.126C193.568 402.49 194.917 404.674 196.406 406.749C197.883 408.808 199.208 411.027 199.58 413.534C200.394 419.015 199.553 424.9 197.798 430.032C193.351 442.925 184.089 453.533 179.764 466.507C177.806 472.382 176.908 478.666 178.01 484.826C179.071 490.661 182.416 495.679 183.885 501.35C187.557 515.508 171.604 523.137 162.669 530.441C151.653 539.457 142.881 551.126 137.21 564.182V564.182C136.931 564.881 136.759 565.682 136.252 566.237C135.983 566.531 135.719 566.836 135.456 567.161C134.068 568.956 136.598 571.445 138.026 569.649C143.289 562.917 152.306 562.306 160.18 561.734C160.73 561.694 161.28 561.654 161.831 561.611C164.09 561.434 166.362 561.599 168.61 561.88C171.887 562.291 175.202 562.185 178.54 561.245C182.416 560.184 185.599 557.94 188.251 554.921C190.821 551.983 192.943 548.474 196.166 546.149C201.47 542.273 208.406 541.702 214.526 539.743C221.299 537.581 226.725 533.378 228.765 526.32C231.091 518.405 228.928 510.122 226.317 502.574C224.889 498.739 223.42 494.822 222.441 490.701Z" fill="url(#paint17_linear)"/>
<path d="M211.955 458.796C211.453 460.442 210.759 462.007 209.889 463.457C208.818 465.244 206.879 464.074 207.549 462.101V462.101C210.935 452.105 214.485 441.13 210.609 430.726C209.711 428.318 205.835 429.379 206.733 431.786C207.807 434.701 208.256 437.663 208.261 440.633C208.264 442.332 206.615 442.501 206.651 440.803V440.803C206.692 438.233 202.694 438.233 202.612 440.803C202.6 441.395 202.623 441.984 202.682 442.567C203.285 448.542 205.799 454.738 203.877 460.428V460.428C202.327 465.038 200.735 469.69 199.919 474.504V474.504C199.25 478.57 194.723 480.314 193.733 476.314C193.551 475.579 193.423 474.825 193.351 474.055C193.106 471.485 189.067 471.485 189.311 474.055C189.614 477.161 190.594 480.126 192.149 482.738C195.544 488.443 200.245 493.994 200.624 500.622C200.801 503.725 200.804 506.83 200.405 509.868C200.334 510.412 200.054 510.916 199.969 511.457V511.457C199.892 511.947 199.953 512.455 199.841 512.938C199.484 514.487 198.998 516.028 198.328 517.507C197.154 520.201 195.467 522.331 193.471 524.118C190.874 526.445 187.225 523.997 188.047 520.608V520.608C188.659 518.078 184.783 517.018 184.171 519.547C183.653 521.71 183.245 523.9 182.944 526.102C182.533 529.115 180.794 531.796 178.173 533.338V533.338C174.093 535.786 170.135 538.968 168.095 543.374C166.137 547.618 165.851 552.677 168.422 556.757C169.809 558.919 173.277 556.92 171.89 554.717V554.717C168.118 548.738 177.045 544.624 183.935 543.043C185.918 542.588 187.866 541.963 189.76 541.171C190.78 540.763 191.474 539.866 191.147 538.682C190.903 537.744 189.679 536.846 188.659 537.295C187.158 537.928 185.636 538.444 184.097 538.847C181.311 539.576 180.292 536.751 182.824 535.378V535.378C186.782 533.256 190.903 531.379 194.493 528.605C197.92 525.953 200.491 522.648 202.163 518.65V518.65C203.618 515.203 205.78 512.042 208.152 509.149C210.851 505.857 212.465 501.73 212.69 497.352C212.812 494.782 208.773 494.782 208.651 497.352V497.352C208.49 501.015 204.496 499.972 204.185 496.319C204.053 494.763 203.902 493.215 203.755 491.681C203.265 486.581 202.857 481.358 203.632 476.258C203.682 475.941 203.733 475.63 203.786 475.32C203.914 474.572 204.705 474.096 205.346 473.688V473.688C210.364 470.506 214.036 465.65 215.791 459.938C216.607 457.409 212.731 456.348 211.955 458.796Z" fill="#F8F9FB"/>
<path d="M199.348 553.656H160.547H121.747C116.728 553.656 113.056 559.286 114.239 565.121L128.601 636.317C130.437 645.334 137.169 651.698 144.88 651.698H160.547H176.255C184.007 651.698 190.739 645.334 192.535 636.317L206.896 565.121C208.039 559.286 204.367 553.656 199.348 553.656Z" fill="url(#paint18_linear)"/>
<path d="M108.283 149.491L106.74 148.767C105.665 148.263 105.007 147.197 104.83 146.022V146.022C104.653 144.849 104.975 143.605 105.866 142.821L107.14 141.698C107.671 141.25 107.793 140.474 107.426 139.862L106.651 138.557L105.876 137.251C105.508 136.639 104.774 136.394 104.121 136.639L102.526 137.228C101.409 137.64 100.153 137.325 99.1883 136.627V136.627C98.2409 135.942 97.6348 134.878 97.7004 133.71L97.7972 131.988C97.838 131.294 97.3892 130.642 96.6956 130.478L95.2268 130.111L93.758 129.744C93.0644 129.581 92.3708 129.907 92.0852 130.56L91.3613 132.103C90.8569 133.178 89.7906 133.836 88.6163 134.013V134.013C87.4429 134.19 86.1989 133.867 85.4146 132.977L84.2924 131.702C83.8436 131.172 83.0684 131.05 82.4564 131.417L81.1508 132.192L79.8452 132.967C79.2332 133.334 78.9884 134.069 79.2332 134.722L79.822 136.317C80.234 137.434 79.9187 138.69 79.2212 139.654V139.654C78.5361 140.602 77.4718 141.208 76.3045 141.142L74.582 141.046C73.8884 141.005 73.2356 141.454 73.0724 142.147L72.7052 143.616L72.338 145.085C72.1748 145.778 72.5012 146.472 73.154 146.758L74.697 147.481C75.7722 147.986 76.4296 149.052 76.6068 150.226V150.226C76.7838 151.4 76.4614 152.644 75.5708 153.428L74.2964 154.55C73.766 154.999 73.6436 155.774 74.0108 156.386L74.786 157.692L75.5612 158.998C75.9284 159.61 76.6628 159.854 77.3156 159.61L78.911 159.021C80.0276 158.609 81.2841 158.924 82.2485 159.622V159.622C83.1958 160.307 83.8019 161.371 83.7363 162.538L83.6396 164.261C83.5988 164.954 84.0476 165.607 84.7412 165.77L86.21 166.138L87.6788 166.505C88.3724 166.668 89.066 166.342 89.3516 165.689L90.0755 164.146C90.5799 163.071 91.6461 162.413 92.8204 162.236V162.236C93.9938 162.059 95.2378 162.381 96.0221 163.272L97.1444 164.546C97.5932 165.077 98.3684 165.199 98.9804 164.832L100.286 164.057L101.592 163.282C102.204 162.914 102.448 162.18 102.204 161.527L101.615 159.932C101.203 158.815 101.518 157.559 102.216 156.594V156.594C102.901 155.647 103.965 155.041 105.132 155.106L106.855 155.203C107.548 155.244 108.201 154.795 108.364 154.102L108.732 152.633L109.099 151.164C109.262 150.511 108.895 149.818 108.283 149.491ZM95.4308 156.019C91.0652 158.63 85.4348 157.202 82.8236 152.878C80.2124 148.512 81.6404 142.882 85.9652 140.27C90.3308 137.659 95.9612 139.087 98.5724 143.412C101.184 147.778 99.7556 153.408 95.4308 156.019Z" fill="#A0BDE5"/>
<defs>
<linearGradient id="paint0_linear" x1="94.469" y1="290.495" x2="194.663" y2="290.495" gradientUnits="userSpaceOnUse">
<stop stop-color="#A0BDE5"/>
<stop offset="1" stop-color="#6ED1CE"/>
</linearGradient>
<linearGradient id="paint1_linear" x1="602.296" y1="198.663" x2="780.894" y2="198.663" gradientUnits="userSpaceOnUse">
<stop stop-color="#A0BDE5"/>
<stop offset="1" stop-color="#6ED1CE"/>
</linearGradient>
<linearGradient id="paint2_linear" x1="491.603" y1="612.293" x2="491.603" y2="560.726" gradientUnits="userSpaceOnUse">
<stop stop-color="#F8F9FB"/>
<stop offset="1" stop-color="#A0BDE5"/>
</linearGradient>
<linearGradient id="paint3_linear" x1="364.604" y1="292.953" x2="364.354" y2="292.512" gradientUnits="userSpaceOnUse">
<stop stop-color="#2A4A93"/>
<stop offset="1" stop-color="#22395E"/>
</linearGradient>
<linearGradient id="paint4_linear" x1="371.889" y1="297.231" x2="371.607" y2="296.736" gradientUnits="userSpaceOnUse">
<stop stop-color="#2A4A93"/>
<stop offset="1" stop-color="#22395E"/>
</linearGradient>
<linearGradient id="paint5_linear" x1="381.65" y1="334.553" x2="381.48" y2="334.253" gradientUnits="userSpaceOnUse">
<stop stop-color="#2A4A93"/>
<stop offset="1" stop-color="#22395E"/>
</linearGradient>
<linearGradient id="paint6_linear" x1="386.296" y1="322.042" x2="364.662" y2="284.025" gradientUnits="userSpaceOnUse">
<stop stop-color="#2A4A93"/>
<stop offset="1" stop-color="#22395E"/>
</linearGradient>
<linearGradient id="paint7_linear" x1="381.806" y1="310.082" x2="381.483" y2="309.514" gradientUnits="userSpaceOnUse">
<stop stop-color="#2A4A93"/>
<stop offset="1" stop-color="#22395E"/>
</linearGradient>
<linearGradient id="paint8_linear" x1="353" y1="461.636" x2="371.177" y2="422.522" gradientUnits="userSpaceOnUse">
<stop stop-color="#F47D7D"/>
<stop offset="1" stop-color="#E56767"/>
</linearGradient>
<linearGradient id="paint9_linear" x1="350.411" y1="369.106" x2="319.063" y2="319.502" gradientUnits="userSpaceOnUse">
<stop stop-color="#F47D7D"/>
<stop offset="1" stop-color="#E56767"/>
</linearGradient>
<linearGradient id="paint10_linear" x1="302.899" y1="529.893" x2="330.595" y2="589.061" gradientUnits="userSpaceOnUse">
<stop stop-color="#F8F9FB"/>
<stop offset="1" stop-color="#A0BDE5"/>
</linearGradient>
<linearGradient id="paint11_linear" x1="388.117" y1="512.718" x2="379.429" y2="556.1" gradientUnits="userSpaceOnUse">
<stop stop-color="#3576EE"/>
<stop offset="1" stop-color="#296BCC"/>
</linearGradient>
<linearGradient id="paint12_linear" x1="251.561" y1="539.604" x2="294.878" y2="593.212" gradientUnits="userSpaceOnUse">
<stop stop-color="#3576EE"/>
<stop offset="1" stop-color="#296BCC"/>
</linearGradient>
<linearGradient id="paint13_linear" x1="568.141" y1="523.277" x2="575.005" y2="707.723" gradientUnits="userSpaceOnUse">
<stop stop-color="#F8F9FB"/>
<stop offset="1" stop-color="#A0BDE5"/>
</linearGradient>
<linearGradient id="paint14_linear" x1="275.658" y1="375.361" x2="299.774" y2="243.832" gradientUnits="userSpaceOnUse">
<stop stop-color="#2A4A93"/>
<stop offset="1" stop-color="#22395E"/>
</linearGradient>
<linearGradient id="paint15_linear" x1="169.603" y1="450.397" x2="162.415" y2="499.895" gradientUnits="userSpaceOnUse">
<stop stop-color="#3576EE"/>
<stop offset="1" stop-color="#F77FA4"/>
</linearGradient>
<linearGradient id="paint16_linear" x1="118.573" y1="408.208" x2="118.573" y2="574.129" gradientUnits="userSpaceOnUse">
<stop stop-color="#3576EE"/>
<stop offset="1" stop-color="#F77FA4"/>
</linearGradient>
<linearGradient id="paint17_linear" x1="201.185" y1="421.213" x2="189.104" y2="500.577" gradientUnits="userSpaceOnUse">
<stop stop-color="#3576EE"/>
<stop offset="1" stop-color="#F77FA4"/>
</linearGradient>
<linearGradient id="paint18_linear" x1="160.563" y1="574.836" x2="160.563" y2="672.874" gradientUnits="userSpaceOnUse">
<stop stop-color="#6ED1CE"/>
<stop offset="1" stop-color="#45A1D0"/>
</linearGradient>
</defs>
</svg>
